# Wavefront OBJ file automatically generated by Tiled2Unity

# Vertices (Count = 36)
v -64 -576 0
v -96 -576 0
v -96 -544 0
v -64 -544 0
v -128 -576 0
v -128 -544 0
v -160 -576 0
v -160 -544 0
v -192 -576 0
v -192 -544 0
v -224 -576 0
v -224 -544 0
v -256 -576 0
v -256 -544 0
v -288 -576 0
v -288 -544 0
v -320 -576 0
v -320 -544 0
v -352 -576 0
v -352 -544 0
v -384 -576 0
v -384 -544 0
v -416 -576 0
v -416 -544 0
v -448 -576 0
v -448 -544 0
v -480 -576 0
v -480 -544 0
v -512 -576 0
v -512 -544 0
v -544 -576 0
v -544 -544 0
v -576 -576 0
v -576 -544 0
v -608 -576 0
v -608 -544 0

# Texture cooridinates (Count = 4)
vt 0.4033778 0.8740311
vt 0.5377987 0.8740311
vt 0.5377987 0.9999846
vt 0.4033778 0.9999846

# Normal
vn 0 0 -1

# Groups (Count = 1)

g mesh_0001
f 1/1/1 2/2/1 3/3/1 4/4/1
f 2/1/1 5/2/1 6/3/1 3/4/1
f 5/1/1 7/2/1 8/3/1 6/4/1
f 7/1/1 9/2/1 10/3/1 8/4/1
f 9/1/1 11/2/1 12/3/1 10/4/1
f 11/1/1 13/2/1 14/3/1 12/4/1
f 13/1/1 15/2/1 16/3/1 14/4/1
f 15/1/1 17/2/1 18/3/1 16/4/1
f 17/1/1 19/2/1 20/3/1 18/4/1
f 19/1/1 21/2/1 22/3/1 20/4/1
f 21/1/1 23/2/1 24/3/1 22/4/1
f 23/1/1 25/2/1 26/3/1 24/4/1
f 25/1/1 27/2/1 28/3/1 26/4/1
f 27/1/1 29/2/1 30/3/1 28/4/1
f 29/1/1 31/2/1 32/3/1 30/4/1
f 31/1/1 33/2/1 34/3/1 32/4/1
f 33/1/1 35/2/1 36/3/1 34/4/1

